<?xml version="1.0" encoding="utf-8"?><svg width="auto" height="6020" style="overflow:visible " version="1.1" xmlns="http://www.w3.org/2000/svg"><rect x="20" y="20" width="200" height="40" style="fill:white;stroke:black;stroke-width:1" /><text x="30" y="30" font-size="10" style="fill:blue">bib</text><rect x="240" y="20" width="200" height="40" style="fill:white;stroke:black;stroke-width:1" /><text x="250" y="30" font-size="10" style="fill:blue">libro</text><path d="M220 40 C240 40 220 40 240 40" style="fill:transparent;stroke:black" /><text x="250" y="40" font-size="8" style="fill:black">año: 1994</text><rect x="460" y="20" width="200" height="40" style="fill:white;stroke:black;stroke-width:1" /><text x="470" y="30" font-size="10" style="fill:blue">titulo</text><path d="M440 40 C460 40 440 40 460 40" style="fill:transparent;stroke:black" /><rect x="526" y="20" width="137" height="40" style="fill:green;stroke:black;stroke-width:1" /><text x="536" y="30" font-size="8" style="fill:white">Fundamentos de Bases de Datos</text><rect x="460" y="70" width="200" height="40" style="fill:white;stroke:black;stroke-width:1" /><text x="470" y="80" font-size="10" style="fill:blue">autor</text><path d="M440 40 C460 40 440 90 460 90" style="fill:transparent;stroke:black" /><rect x="680" y="70" width="200" height="40" style="fill:white;stroke:black;stroke-width:1" /><text x="690" y="80" font-size="10" style="fill:blue">nombre</text><path d="M660 90 C680 90 660 90 680 90" style="fill:transparent;stroke:black" /><rect x="746" y="70" width="137" height="40" style="fill:green;stroke:black;stroke-width:1" /><text x="756" y="80" font-size="8" style="fill:white">Abraham</text><rect x="680" y="120" width="200" height="40" style="fill:white;stroke:black;stroke-width:1" /><text x="690" y="130" font-size="10" style="fill:blue">apellido</text><path d="M660 90 C680 90 660 140 680 140" style="fill:transparent;stroke:black" /><rect x="746" y="120" width="137" height="40" style="fill:green;stroke:black;stroke-width:1" /><text x="756" y="130" font-size="8" style="fill:white">Silberschatz</text><rect x="680" y="170" width="200" height="40" style="fill:white;stroke:black;stroke-width:1" /><text x="690" y="180" font-size="10" style="fill:blue">direccion</text><path d="M660 90 C680 90 660 190 680 190" style="fill:transparent;stroke:black" /><rect x="900" y="170" width="200" height="40" style="fill:white;stroke:black;stroke-width:1" /><text x="910" y="180" font-size="10" style="fill:blue">calle</text><path d="M880 190 C900 190 880 190 900 190" style="fill:transparent;stroke:black" /><rect x="966" y="170" width="137" height="40" style="fill:green;stroke:black;stroke-width:1" /><text x="976" y="180" font-size="8" style="fill:white">Kensigton </text><rect x="900" y="220" width="200" height="40" style="fill:white;stroke:black;stroke-width:1" /><text x="910" y="230" font-size="10" style="fill:blue">numero</text><path d="M880 190 C900 190 880 240 900 240" style="fill:transparent;stroke:black" /><rect x="966" y="220" width="137" height="40" style="fill:green;stroke:black;stroke-width:1" /><text x="976" y="230" font-size="8" style="fill:white">12 </text><rect x="900" y="270" width="200" height="40" style="fill:white;stroke:black;stroke-width:1" /><text x="910" y="280" font-size="10" style="fill:blue">telefono</text><path d="M880 190 C900 190 880 290 900 290" style="fill:transparent;stroke:black" /><rect x="1120" y="270" width="200" height="40" style="fill:white;stroke:black;stroke-width:1" /><text x="1130" y="280" font-size="10" style="fill:blue">fijo</text><path d="M1100 290 C1120 290 1100 290 1120 290" style="fill:transparent;stroke:black" /><rect x="1186" y="270" width="137" height="40" style="fill:green;stroke:black;stroke-width:1" /><text x="1196" y="280" font-size="8" style="fill:white"> 89-3456-345-21 </text><rect x="1120" y="320" width="200" height="40" style="fill:white;stroke:black;stroke-width:1" /><text x="1130" y="330" font-size="10" style="fill:blue">movil</text><path d="M1100 290 C1120 290 1100 340 1120 340" style="fill:transparent;stroke:black" /><rect x="1186" y="320" width="137" height="40" style="fill:green;stroke:black;stroke-width:1" /><text x="1196" y="330" font-size="8" style="fill:white"> 669234567 </text><rect x="680" y="470" width="200" height="40" style="fill:white;stroke:black;stroke-width:1" /><text x="690" y="480" font-size="10" style="fill:blue">direccion</text><path d="M660 90 C680 90 660 490 680 490" style="fill:transparent;stroke:black" /><rect x="900" y="470" width="200" height="40" style="fill:white;stroke:black;stroke-width:1" /><text x="910" y="480" font-size="10" style="fill:blue">calle</text><path d="M880 490 C900 490 880 490 900 490" style="fill:transparent;stroke:black" /><rect x="966" y="470" width="137" height="40" style="fill:green;stroke:black;stroke-width:1" /><text x="976" y="480" font-size="8" style="fill:white">Park Avenue </text><rect x="900" y="520" width="200" height="40" style="fill:white;stroke:black;stroke-width:1" /><text x="910" y="530" font-size="10" style="fill:blue">numero</text><path d="M880 490 C900 490 880 540 900 540" style="fill:transparent;stroke:black" /><rect x="966" y="520" width="137" height="40" style="fill:green;stroke:black;stroke-width:1" /><text x="976" y="530" font-size="8" style="fill:white">12 </text><rect x="900" y="570" width="200" height="40" style="fill:white;stroke:black;stroke-width:1" /><text x="910" y="580" font-size="10" style="fill:blue">telefono</text><path d="M880 490 C900 490 880 590 900 590" style="fill:transparent;stroke:black" /><rect x="1120" y="570" width="200" height="40" style="fill:white;stroke:black;stroke-width:1" /><text x="1130" y="580" font-size="10" style="fill:blue">fijo</text><path d="M1100 590 C1120 590 1100 590 1120 590" style="fill:transparent;stroke:black" /><rect x="1186" y="570" width="137" height="40" style="fill:green;stroke:black;stroke-width:1" /><text x="1196" y="580" font-size="8" style="fill:white"> 89-3456-345-21 </text><rect x="680" y="720" width="200" height="40" style="fill:white;stroke:black;stroke-width:1" /><text x="690" y="730" font-size="10" style="fill:blue">email</text><path d="M660 90 C680 90 660 740 680 740" style="fill:transparent;stroke:black" /><rect x="746" y="720" width="137" height="40" style="fill:green;stroke:black;stroke-width:1" /><text x="756" y="730" font-size="8" style="fill:white"> silbers@hotmail.com </text><rect x="460" y="820" width="200" height="40" style="fill:white;stroke:black;stroke-width:1" /><text x="470" y="830" font-size="10" style="fill:blue">autor</text><path d="M440 40 C460 40 440 840 460 840" style="fill:transparent;stroke:black" /><rect x="680" y="820" width="200" height="40" style="fill:white;stroke:black;stroke-width:1" /><text x="690" y="830" font-size="10" style="fill:blue">nombre</text><path d="M660 840 C680 840 660 840 680 840" style="fill:transparent;stroke:black" /><rect x="746" y="820" width="137" height="40" style="fill:green;stroke:black;stroke-width:1" /><text x="756" y="830" font-size="8" style="fill:white">Henry</text><rect x="680" y="870" width="200" height="40" style="fill:white;stroke:black;stroke-width:1" /><text x="690" y="880" font-size="10" style="fill:blue">apellido</text><path d="M660 840 C680 840 660 890 680 890" style="fill:transparent;stroke:black" /><rect x="746" y="870" width="137" height="40" style="fill:green;stroke:black;stroke-width:1" /><text x="756" y="880" font-size="8" style="fill:white">Korth</text><rect x="680" y="920" width="200" height="40" style="fill:white;stroke:black;stroke-width:1" /><text x="690" y="930" font-size="10" style="fill:blue">direccion</text><path d="M660 840 C680 840 660 940 680 940" style="fill:transparent;stroke:black" /><rect x="900" y="920" width="200" height="40" style="fill:white;stroke:black;stroke-width:1" /><text x="910" y="930" font-size="10" style="fill:blue">calle</text><path d="M880 940 C900 940 880 940 900 940" style="fill:transparent;stroke:black" /><rect x="966" y="920" width="137" height="40" style="fill:green;stroke:black;stroke-width:1" /><text x="976" y="930" font-size="8" style="fill:white">Kensigton </text><rect x="900" y="970" width="200" height="40" style="fill:white;stroke:black;stroke-width:1" /><text x="910" y="980" font-size="10" style="fill:blue">numero</text><path d="M880 940 C900 940 880 990 900 990" style="fill:transparent;stroke:black" /><rect x="966" y="970" width="137" height="40" style="fill:green;stroke:black;stroke-width:1" /><text x="976" y="980" font-size="8" style="fill:white">12 </text><rect x="460" y="1120" width="200" height="40" style="fill:white;stroke:black;stroke-width:1" /><text x="470" y="1130" font-size="10" style="fill:blue">editor</text><path d="M440 40 C460 40 440 1140 460 1140" style="fill:transparent;stroke:black" /><rect x="680" y="1120" width="200" height="40" style="fill:white;stroke:black;stroke-width:1" /><text x="690" y="1130" font-size="10" style="fill:blue">nombre</text><path d="M660 1140 C680 1140 660 1140 680 1140" style="fill:transparent;stroke:black" /><rect x="746" y="1120" width="137" height="40" style="fill:green;stroke:black;stroke-width:1" /><text x="756" y="1130" font-size="8" style="fill:white">Peter</text><rect x="680" y="1170" width="200" height="40" style="fill:white;stroke:black;stroke-width:1" /><text x="690" y="1180" font-size="10" style="fill:blue">apellido</text><path d="M660 1140 C680 1140 660 1190 680 1190" style="fill:transparent;stroke:black" /><rect x="746" y="1170" width="137" height="40" style="fill:green;stroke:black;stroke-width:1" /><text x="756" y="1180" font-size="8" style="fill:white">Sellerman</text><rect x="460" y="1270" width="200" height="40" style="fill:white;stroke:black;stroke-width:1" /><text x="470" y="1280" font-size="10" style="fill:blue">editorial</text><path d="M440 40 C460 40 440 1290 460 1290" style="fill:transparent;stroke:black" /><rect x="526" y="1270" width="137" height="40" style="fill:green;stroke:black;stroke-width:1" /><text x="536" y="1280" font-size="8" style="fill:white">McGraw-Hill</text><rect x="460" y="1320" width="200" height="40" style="fill:white;stroke:black;stroke-width:1" /><text x="470" y="1330" font-size="10" style="fill:blue">precio</text><path d="M440 40 C460 40 440 1340 460 1340" style="fill:transparent;stroke:black" /><rect x="526" y="1320" width="137" height="40" style="fill:green;stroke:black;stroke-width:1" /><text x="536" y="1330" font-size="8" style="fill:white"> 80 </text><rect x="240" y="1420" width="200" height="40" style="fill:white;stroke:black;stroke-width:1" /><text x="250" y="1430" font-size="10" style="fill:blue">libro</text><path d="M220 40 C240 40 220 1440 240 1440" style="fill:transparent;stroke:black" /><text x="250" y="1440" font-size="8" style="fill:black">año: 1992</text><rect x="460" y="1420" width="200" height="40" style="fill:white;stroke:black;stroke-width:1" /><text x="470" y="1430" font-size="10" style="fill:blue">titulo</text><path d="M440 1440 C460 1440 440 1440 460 1440" style="fill:transparent;stroke:black" /><rect x="526" y="1420" width="137" height="40" style="fill:green;stroke:black;stroke-width:1" /><text x="536" y="1430" font-size="8" style="fill:white">Advanced Programming in the UNIX Environment</text><rect x="460" y="1470" width="200" height="40" style="fill:white;stroke:black;stroke-width:1" /><text x="470" y="1480" font-size="10" style="fill:blue">autor</text><path d="M440 1440 C460 1440 440 1490 460 1490" style="fill:transparent;stroke:black" /><rect x="680" y="1470" width="200" height="40" style="fill:white;stroke:black;stroke-width:1" /><text x="690" y="1480" font-size="10" style="fill:blue">nombre</text><path d="M660 1490 C680 1490 660 1490 680 1490" style="fill:transparent;stroke:black" /><rect x="746" y="1470" width="137" height="40" style="fill:green;stroke:black;stroke-width:1" /><text x="756" y="1480" font-size="8" style="fill:white">William</text><rect x="680" y="1520" width="200" height="40" style="fill:white;stroke:black;stroke-width:1" /><text x="690" y="1530" font-size="10" style="fill:blue">apellido</text><path d="M660 1490 C680 1490 660 1540 680 1540" style="fill:transparent;stroke:black" /><rect x="746" y="1520" width="137" height="40" style="fill:green;stroke:black;stroke-width:1" /><text x="756" y="1530" font-size="8" style="fill:white">Stevens</text><rect x="680" y="1570" width="200" height="40" style="fill:white;stroke:black;stroke-width:1" /><text x="690" y="1580" font-size="10" style="fill:blue">email</text><path d="M660 1490 C680 1490 660 1590 680 1590" style="fill:transparent;stroke:black" /><rect x="746" y="1570" width="137" height="40" style="fill:green;stroke:black;stroke-width:1" /><text x="756" y="1580" font-size="8" style="fill:white"> stevens@hotmail.com </text><rect x="460" y="1670" width="200" height="40" style="fill:white;stroke:black;stroke-width:1" /><text x="470" y="1680" font-size="10" style="fill:blue">autor</text><path d="M440 1440 C460 1440 440 1690 460 1690" style="fill:transparent;stroke:black" /><rect x="680" y="1670" width="200" height="40" style="fill:white;stroke:black;stroke-width:1" /><text x="690" y="1680" font-size="10" style="fill:blue">nombre</text><path d="M660 1690 C680 1690 660 1690 680 1690" style="fill:transparent;stroke:black" /><rect x="746" y="1670" width="137" height="40" style="fill:green;stroke:black;stroke-width:1" /><text x="756" y="1680" font-size="8" style="fill:white">Brian</text><rect x="680" y="1720" width="200" height="40" style="fill:white;stroke:black;stroke-width:1" /><text x="690" y="1730" font-size="10" style="fill:blue">apellido</text><path d="M660 1690 C680 1690 660 1740 680 1740" style="fill:transparent;stroke:black" /><rect x="746" y="1720" width="137" height="40" style="fill:green;stroke:black;stroke-width:1" /><text x="756" y="1730" font-size="8" style="fill:white">Gordon</text><rect x="680" y="1770" width="200" height="40" style="fill:white;stroke:black;stroke-width:1" /><text x="690" y="1780" font-size="10" style="fill:blue">email</text><path d="M660 1690 C680 1690 660 1790 680 1790" style="fill:transparent;stroke:black" /><rect x="746" y="1770" width="137" height="40" style="fill:green;stroke:black;stroke-width:1" /><text x="756" y="1780" font-size="8" style="fill:white">brian@gmail.com</text><rect x="460" y="1870" width="200" height="40" style="fill:white;stroke:black;stroke-width:1" /><text x="470" y="1880" font-size="10" style="fill:blue">autor</text><path d="M440 1440 C460 1440 440 1890 460 1890" style="fill:transparent;stroke:black" /><rect x="680" y="1870" width="200" height="40" style="fill:white;stroke:black;stroke-width:1" /><text x="690" y="1880" font-size="10" style="fill:blue">nombre</text><path d="M660 1890 C680 1890 660 1890 680 1890" style="fill:transparent;stroke:black" /><rect x="746" y="1870" width="137" height="40" style="fill:green;stroke:black;stroke-width:1" /><text x="756" y="1880" font-size="8" style="fill:white">Brian</text><rect x="680" y="1920" width="200" height="40" style="fill:white;stroke:black;stroke-width:1" /><text x="690" y="1930" font-size="10" style="fill:blue">apellido</text><path d="M660 1890 C680 1890 660 1940 680 1940" style="fill:transparent;stroke:black" /><rect x="746" y="1920" width="137" height="40" style="fill:green;stroke:black;stroke-width:1" /><text x="756" y="1930" font-size="8" style="fill:white">Rubens</text><rect x="680" y="1970" width="200" height="40" style="fill:white;stroke:black;stroke-width:1" /><text x="690" y="1980" font-size="10" style="fill:blue">email</text><path d="M660 1890 C680 1890 660 1990 680 1990" style="fill:transparent;stroke:black" /><rect x="746" y="1970" width="137" height="40" style="fill:green;stroke:black;stroke-width:1" /><text x="756" y="1980" font-size="8" style="fill:white">brianrb@gmail.com</text><rect x="460" y="2070" width="200" height="40" style="fill:white;stroke:black;stroke-width:1" /><text x="470" y="2080" font-size="10" style="fill:blue">autor</text><path d="M440 1440 C460 1440 440 2090 460 2090" style="fill:transparent;stroke:black" /><rect x="680" y="2070" width="200" height="40" style="fill:white;stroke:black;stroke-width:1" /><text x="690" y="2080" font-size="10" style="fill:blue">nombre</text><path d="M660 2090 C680 2090 660 2090 680 2090" style="fill:transparent;stroke:black" /><rect x="746" y="2070" width="137" height="40" style="fill:green;stroke:black;stroke-width:1" /><text x="756" y="2080" font-size="8" style="fill:white">Rose</text><rect x="680" y="2120" width="200" height="40" style="fill:white;stroke:black;stroke-width:1" /><text x="690" y="2130" font-size="10" style="fill:blue">apellido</text><path d="M660 2090 C680 2090 660 2140 680 2140" style="fill:transparent;stroke:black" /><rect x="746" y="2120" width="137" height="40" style="fill:green;stroke:black;stroke-width:1" /><text x="756" y="2130" font-size="8" style="fill:white">Pendelton</text><rect x="680" y="2170" width="200" height="40" style="fill:white;stroke:black;stroke-width:1" /><text x="690" y="2180" font-size="10" style="fill:blue">email</text><path d="M660 2090 C680 2090 660 2190 680 2190" style="fill:transparent;stroke:black" /><rect x="746" y="2170" width="137" height="40" style="fill:green;stroke:black;stroke-width:1" /><text x="756" y="2180" font-size="8" style="fill:white">rousp@gmail.com</text><rect x="460" y="2270" width="200" height="40" style="fill:white;stroke:black;stroke-width:1" /><text x="470" y="2280" font-size="10" style="fill:blue">editorial</text><path d="M440 1440 C460 1440 440 2290 460 2290" style="fill:transparent;stroke:black" /><rect x="526" y="2270" width="137" height="40" style="fill:green;stroke:black;stroke-width:1" /><text x="536" y="2280" font-size="8" style="fill:white">Addison-Wesley</text><rect x="460" y="2320" width="200" height="40" style="fill:white;stroke:black;stroke-width:1" /><text x="470" y="2330" font-size="10" style="fill:blue">precio</text><path d="M440 1440 C460 1440 440 2340 460 2340" style="fill:transparent;stroke:black" /><rect x="526" y="2320" width="137" height="40" style="fill:green;stroke:black;stroke-width:1" /><text x="536" y="2330" font-size="8" style="fill:white"> 65.90 </text><rect x="240" y="2420" width="200" height="40" style="fill:white;stroke:black;stroke-width:1" /><text x="250" y="2430" font-size="10" style="fill:blue">libro</text><path d="M220 40 C240 40 220 2440 240 2440" style="fill:transparent;stroke:black" /><text x="250" y="2440" font-size="8" style="fill:black">año: 2000</text><rect x="460" y="2420" width="200" height="40" style="fill:white;stroke:black;stroke-width:1" /><text x="470" y="2430" font-size="10" style="fill:blue">titulo</text><path d="M440 2440 C460 2440 440 2440 460 2440" style="fill:transparent;stroke:black" /><rect x="526" y="2420" width="137" height="40" style="fill:green;stroke:black;stroke-width:1" /><text x="536" y="2430" font-size="8" style="fill:white">Data on the Web</text><rect x="460" y="2470" width="200" height="40" style="fill:white;stroke:black;stroke-width:1" /><text x="470" y="2480" font-size="10" style="fill:blue">autor</text><path d="M440 2440 C460 2440 440 2490 460 2490" style="fill:transparent;stroke:black" /><rect x="680" y="2470" width="200" height="40" style="fill:white;stroke:black;stroke-width:1" /><text x="690" y="2480" font-size="10" style="fill:blue">nombre</text><path d="M660 2490 C680 2490 660 2490 680 2490" style="fill:transparent;stroke:black" /><rect x="746" y="2470" width="137" height="40" style="fill:green;stroke:black;stroke-width:1" /><text x="756" y="2480" font-size="8" style="fill:white">Serge</text><rect x="680" y="2520" width="200" height="40" style="fill:white;stroke:black;stroke-width:1" /><text x="690" y="2530" font-size="10" style="fill:blue">apellido</text><path d="M660 2490 C680 2490 660 2540 680 2540" style="fill:transparent;stroke:black" /><rect x="746" y="2520" width="137" height="40" style="fill:green;stroke:black;stroke-width:1" /><text x="756" y="2530" font-size="8" style="fill:white">Abiteboul</text><rect x="460" y="2620" width="200" height="40" style="fill:white;stroke:black;stroke-width:1" /><text x="470" y="2630" font-size="10" style="fill:blue">autor</text><path d="M440 2440 C460 2440 440 2640 460 2640" style="fill:transparent;stroke:black" /><rect x="680" y="2620" width="200" height="40" style="fill:white;stroke:black;stroke-width:1" /><text x="690" y="2630" font-size="10" style="fill:blue">nombre</text><path d="M660 2640 C680 2640 660 2640 680 2640" style="fill:transparent;stroke:black" /><rect x="746" y="2620" width="137" height="40" style="fill:green;stroke:black;stroke-width:1" /><text x="756" y="2630" font-size="8" style="fill:white">Peter</text><rect x="680" y="2670" width="200" height="40" style="fill:white;stroke:black;stroke-width:1" /><text x="690" y="2680" font-size="10" style="fill:blue">apellido</text><path d="M660 2640 C680 2640 660 2690 680 2690" style="fill:transparent;stroke:black" /><rect x="746" y="2670" width="137" height="40" style="fill:green;stroke:black;stroke-width:1" /><text x="756" y="2680" font-size="8" style="fill:white">Buneman</text><rect x="460" y="2770" width="200" height="40" style="fill:white;stroke:black;stroke-width:1" /><text x="470" y="2780" font-size="10" style="fill:blue">autor</text><path d="M440 2440 C460 2440 440 2790 460 2790" style="fill:transparent;stroke:black" /><rect x="680" y="2770" width="200" height="40" style="fill:white;stroke:black;stroke-width:1" /><text x="690" y="2780" font-size="10" style="fill:blue">nombre</text><path d="M660 2790 C680 2790 660 2790 680 2790" style="fill:transparent;stroke:black" /><rect x="746" y="2770" width="137" height="40" style="fill:green;stroke:black;stroke-width:1" /><text x="756" y="2780" font-size="8" style="fill:white">Dan</text><rect x="680" y="2820" width="200" height="40" style="fill:white;stroke:black;stroke-width:1" /><text x="690" y="2830" font-size="10" style="fill:blue">apellido</text><path d="M660 2790 C680 2790 660 2840 680 2840" style="fill:transparent;stroke:black" /><rect x="746" y="2820" width="137" height="40" style="fill:green;stroke:black;stroke-width:1" /><text x="756" y="2830" font-size="8" style="fill:white">Suciu</text><rect x="460" y="2920" width="200" height="40" style="fill:white;stroke:black;stroke-width:1" /><text x="470" y="2930" font-size="10" style="fill:blue">editorial</text><path d="M440 2440 C460 2440 440 2940 460 2940" style="fill:transparent;stroke:black" /><rect x="526" y="2920" width="137" height="40" style="fill:green;stroke:black;stroke-width:1" /><text x="536" y="2930" font-size="8" style="fill:white">Morgan Kaufmann</text><rect x="460" y="2970" width="200" height="40" style="fill:white;stroke:black;stroke-width:1" /><text x="470" y="2980" font-size="10" style="fill:blue">precio</text><path d="M440 2440 C460 2440 440 2990 460 2990" style="fill:transparent;stroke:black" /><rect x="526" y="2970" width="137" height="40" style="fill:green;stroke:black;stroke-width:1" /><text x="536" y="2980" font-size="8" style="fill:white"> 100 </text><rect x="240" y="3070" width="200" height="40" style="fill:white;stroke:black;stroke-width:1" /><text x="250" y="3080" font-size="10" style="fill:blue">libro</text><path d="M220 40 C240 40 220 3090 240 3090" style="fill:transparent;stroke:black" /><text x="250" y="3090" font-size="8" style="fill:black">año: 2001</text><rect x="460" y="3070" width="200" height="40" style="fill:white;stroke:black;stroke-width:1" /><text x="470" y="3080" font-size="10" style="fill:blue">titulo</text><path d="M440 3090 C460 3090 440 3090 460 3090" style="fill:transparent;stroke:black" /><rect x="526" y="3070" width="137" height="40" style="fill:green;stroke:black;stroke-width:1" /><text x="536" y="3080" font-size="8" style="fill:white">The XML Handbook</text><rect x="460" y="3120" width="200" height="40" style="fill:white;stroke:black;stroke-width:1" /><text x="470" y="3130" font-size="10" style="fill:blue">autor</text><path d="M440 3090 C460 3090 440 3140 460 3140" style="fill:transparent;stroke:black" /><rect x="680" y="3120" width="200" height="40" style="fill:white;stroke:black;stroke-width:1" /><text x="690" y="3130" font-size="10" style="fill:blue">nombre</text><path d="M660 3140 C680 3140 660 3140 680 3140" style="fill:transparent;stroke:black" /><rect x="746" y="3120" width="137" height="40" style="fill:green;stroke:black;stroke-width:1" /><text x="756" y="3130" font-size="8" style="fill:white">C.</text><rect x="680" y="3170" width="200" height="40" style="fill:white;stroke:black;stroke-width:1" /><text x="690" y="3180" font-size="10" style="fill:blue">apellido</text><path d="M660 3140 C680 3140 660 3190 680 3190" style="fill:transparent;stroke:black" /><rect x="746" y="3170" width="137" height="40" style="fill:green;stroke:black;stroke-width:1" /><text x="756" y="3180" font-size="8" style="fill:white">Goldfarb</text><rect x="460" y="3270" width="200" height="40" style="fill:white;stroke:black;stroke-width:1" /><text x="470" y="3280" font-size="10" style="fill:blue">autor</text><path d="M440 3090 C460 3090 440 3290 460 3290" style="fill:transparent;stroke:black" /><rect x="680" y="3270" width="200" height="40" style="fill:white;stroke:black;stroke-width:1" /><text x="690" y="3280" font-size="10" style="fill:blue">nombre</text><path d="M660 3290 C680 3290 660 3290 680 3290" style="fill:transparent;stroke:black" /><rect x="746" y="3270" width="137" height="40" style="fill:green;stroke:black;stroke-width:1" /><text x="756" y="3280" font-size="8" style="fill:white">P.</text><rect x="680" y="3320" width="200" height="40" style="fill:white;stroke:black;stroke-width:1" /><text x="690" y="3330" font-size="10" style="fill:blue">apellido</text><path d="M660 3290 C680 3290 660 3340 680 3340" style="fill:transparent;stroke:black" /><rect x="746" y="3320" width="137" height="40" style="fill:green;stroke:black;stroke-width:1" /><text x="756" y="3330" font-size="8" style="fill:white">Buneman</text><rect x="460" y="3420" width="200" height="40" style="fill:white;stroke:black;stroke-width:1" /><text x="470" y="3430" font-size="10" style="fill:blue">editorial</text><path d="M440 3090 C460 3090 440 3440 460 3440" style="fill:transparent;stroke:black" /><rect x="526" y="3420" width="137" height="40" style="fill:green;stroke:black;stroke-width:1" /><text x="536" y="3430" font-size="8" style="fill:white">Prentice-Hall</text><rect x="240" y="3520" width="200" height="40" style="fill:white;stroke:black;stroke-width:1" /><text x="250" y="3530" font-size="10" style="fill:blue">libro</text><path d="M220 40 C240 40 220 3540 240 3540" style="fill:transparent;stroke:black" /><text x="250" y="3540" font-size="8" style="fill:black">año: 2001</text><rect x="460" y="3520" width="200" height="40" style="fill:white;stroke:black;stroke-width:1" /><text x="470" y="3530" font-size="10" style="fill:blue">titulo</text><path d="M440 3540 C460 3540 440 3540 460 3540" style="fill:transparent;stroke:black" /><rect x="526" y="3520" width="137" height="40" style="fill:green;stroke:black;stroke-width:1" /><text x="536" y="3530" font-size="8" style="fill:white">The XML Handbook</text><rect x="460" y="3570" width="200" height="40" style="fill:white;stroke:black;stroke-width:1" /><text x="470" y="3580" font-size="10" style="fill:blue">autor</text><path d="M440 3540 C460 3540 440 3590 460 3590" style="fill:transparent;stroke:black" /><rect x="680" y="3570" width="200" height="40" style="fill:white;stroke:black;stroke-width:1" /><text x="690" y="3580" font-size="10" style="fill:blue">nombre</text><path d="M660 3590 C680 3590 660 3590 680 3590" style="fill:transparent;stroke:black" /><rect x="746" y="3570" width="137" height="40" style="fill:green;stroke:black;stroke-width:1" /><text x="756" y="3580" font-size="8" style="fill:white">C.</text><rect x="680" y="3620" width="200" height="40" style="fill:white;stroke:black;stroke-width:1" /><text x="690" y="3630" font-size="10" style="fill:blue">apellido</text><path d="M660 3590 C680 3590 660 3640 680 3640" style="fill:transparent;stroke:black" /><rect x="746" y="3620" width="137" height="40" style="fill:green;stroke:black;stroke-width:1" /><text x="756" y="3630" font-size="8" style="fill:white">Goldfarb</text><rect x="460" y="3720" width="200" height="40" style="fill:white;stroke:black;stroke-width:1" /><text x="470" y="3730" font-size="10" style="fill:blue">autor</text><path d="M440 3540 C460 3540 440 3740 460 3740" style="fill:transparent;stroke:black" /><rect x="680" y="3720" width="200" height="40" style="fill:white;stroke:black;stroke-width:1" /><text x="690" y="3730" font-size="10" style="fill:blue">nombre</text><path d="M660 3740 C680 3740 660 3740 680 3740" style="fill:transparent;stroke:black" /><rect x="746" y="3720" width="137" height="40" style="fill:green;stroke:black;stroke-width:1" /><text x="756" y="3730" font-size="8" style="fill:white">P.</text><rect x="680" y="3770" width="200" height="40" style="fill:white;stroke:black;stroke-width:1" /><text x="690" y="3780" font-size="10" style="fill:blue">apellido</text><path d="M660 3740 C680 3740 660 3790 680 3790" style="fill:transparent;stroke:black" /><rect x="746" y="3770" width="137" height="40" style="fill:green;stroke:black;stroke-width:1" /><text x="756" y="3780" font-size="8" style="fill:white">Buneman</text><rect x="460" y="3870" width="200" height="40" style="fill:white;stroke:black;stroke-width:1" /><text x="470" y="3880" font-size="10" style="fill:blue">editor</text><path d="M440 3540 C460 3540 440 3890 460 3890" style="fill:transparent;stroke:black" /><rect x="680" y="3870" width="200" height="40" style="fill:white;stroke:black;stroke-width:1" /><text x="690" y="3880" font-size="10" style="fill:blue">nombre</text><path d="M660 3890 C680 3890 660 3890 680 3890" style="fill:transparent;stroke:black" /><rect x="746" y="3870" width="137" height="40" style="fill:green;stroke:black;stroke-width:1" /><text x="756" y="3880" font-size="8" style="fill:white">Juliette</text><rect x="680" y="3920" width="200" height="40" style="fill:white;stroke:black;stroke-width:1" /><text x="690" y="3930" font-size="10" style="fill:blue">apellido</text><path d="M660 3890 C680 3890 660 3940 680 3940" style="fill:transparent;stroke:black" /><rect x="746" y="3920" width="137" height="40" style="fill:green;stroke:black;stroke-width:1" /><text x="756" y="3930" font-size="8" style="fill:white">Peterson</text><rect x="460" y="4020" width="200" height="40" style="fill:white;stroke:black;stroke-width:1" /><text x="470" y="4030" font-size="10" style="fill:blue">editorial</text><path d="M440 3540 C460 3540 440 4040 460 4040" style="fill:transparent;stroke:black" /><rect x="526" y="4020" width="137" height="40" style="fill:green;stroke:black;stroke-width:1" /><text x="536" y="4030" font-size="8" style="fill:white">Prentice-Hall</text><rect x="240" y="4120" width="200" height="40" style="fill:white;stroke:black;stroke-width:1" /><text x="250" y="4130" font-size="10" style="fill:blue">libro</text><path d="M220 40 C240 40 220 4140 240 4140" style="fill:transparent;stroke:black" /><text x="250" y="4140" font-size="8" style="fill:black">año: 2006</text><rect x="460" y="4120" width="200" height="40" style="fill:white;stroke:black;stroke-width:1" /><text x="470" y="4130" font-size="10" style="fill:blue">titulo</text><path d="M440 4140 C460 4140 440 4140 460 4140" style="fill:transparent;stroke:black" /><rect x="526" y="4120" width="137" height="40" style="fill:green;stroke:black;stroke-width:1" /><text x="536" y="4130" font-size="8" style="fill:white">No me hagas pensar</text><rect x="460" y="4170" width="200" height="40" style="fill:white;stroke:black;stroke-width:1" /><text x="470" y="4180" font-size="10" style="fill:blue">autor</text><path d="M440 4140 C460 4140 440 4190 460 4190" style="fill:transparent;stroke:black" /><rect x="680" y="4170" width="200" height="40" style="fill:white;stroke:black;stroke-width:1" /><text x="690" y="4180" font-size="10" style="fill:blue">nombre</text><path d="M660 4190 C680 4190 660 4190 680 4190" style="fill:transparent;stroke:black" /><rect x="746" y="4170" width="137" height="40" style="fill:green;stroke:black;stroke-width:1" /><text x="756" y="4180" font-size="8" style="fill:white">Steve</text><rect x="680" y="4220" width="200" height="40" style="fill:white;stroke:black;stroke-width:1" /><text x="690" y="4230" font-size="10" style="fill:blue">apellido</text><path d="M660 4190 C680 4190 660 4240 680 4240" style="fill:transparent;stroke:black" /><rect x="746" y="4220" width="137" height="40" style="fill:green;stroke:black;stroke-width:1" /><text x="756" y="4230" font-size="8" style="fill:white">Krug</text><rect x="460" y="4320" width="200" height="40" style="fill:white;stroke:black;stroke-width:1" /><text x="470" y="4330" font-size="10" style="fill:blue">editorial</text><path d="M440 4140 C460 4140 440 4340 460 4340" style="fill:transparent;stroke:black" /><rect x="526" y="4320" width="137" height="40" style="fill:green;stroke:black;stroke-width:1" /><text x="536" y="4330" font-size="8" style="fill:white">Prentice-Hall</text><rect x="460" y="4370" width="200" height="40" style="fill:white;stroke:black;stroke-width:1" /><text x="470" y="4380" font-size="10" style="fill:blue">precio</text><path d="M440 4140 C460 4140 440 4390 460 4390" style="fill:transparent;stroke:black" /><rect x="526" y="4370" width="137" height="40" style="fill:green;stroke:black;stroke-width:1" /><text x="536" y="4380" font-size="8" style="fill:white">400</text><rect x="240" y="4470" width="200" height="40" style="fill:white;stroke:black;stroke-width:1" /><text x="250" y="4480" font-size="10" style="fill:blue">libro</text><path d="M220 40 C240 40 220 4490 240 4490" style="fill:transparent;stroke:black" /><text x="250" y="4490" font-size="8" style="fill:black">año: 2003</text><rect x="460" y="4470" width="200" height="40" style="fill:white;stroke:black;stroke-width:1" /><text x="470" y="4480" font-size="10" style="fill:blue">titulo</text><path d="M440 4490 C460 4490 440 4490 460 4490" style="fill:transparent;stroke:black" /><rect x="526" y="4470" width="137" height="40" style="fill:green;stroke:black;stroke-width:1" /><text x="536" y="4480" font-size="8" style="fill:white">Xquery 1.0</text><rect x="460" y="4520" width="200" height="40" style="fill:white;stroke:black;stroke-width:1" /><text x="470" y="4530" font-size="10" style="fill:blue">autor</text><path d="M440 4490 C460 4490 440 4540 460 4540" style="fill:transparent;stroke:black" /><rect x="680" y="4520" width="200" height="40" style="fill:white;stroke:black;stroke-width:1" /><text x="690" y="4530" font-size="10" style="fill:blue">nombre</text><path d="M660 4540 C680 4540 660 4540 680 4540" style="fill:transparent;stroke:black" /><rect x="746" y="4520" width="137" height="40" style="fill:green;stroke:black;stroke-width:1" /><text x="756" y="4530" font-size="8" style="fill:white">William</text><rect x="680" y="4570" width="200" height="40" style="fill:white;stroke:black;stroke-width:1" /><text x="690" y="4580" font-size="10" style="fill:blue">apellido</text><path d="M660 4540 C680 4540 660 4590 680 4590" style="fill:transparent;stroke:black" /><rect x="746" y="4570" width="137" height="40" style="fill:green;stroke:black;stroke-width:1" /><text x="756" y="4580" font-size="8" style="fill:white">Gordon</text><rect x="680" y="4620" width="200" height="40" style="fill:white;stroke:black;stroke-width:1" /><text x="690" y="4630" font-size="10" style="fill:blue">email</text><path d="M660 4540 C680 4540 660 4640 680 4640" style="fill:transparent;stroke:black" /><rect x="746" y="4620" width="137" height="40" style="fill:green;stroke:black;stroke-width:1" /><text x="756" y="4630" font-size="8" style="fill:white">WGordon@hotmail.com</text><rect x="460" y="4720" width="200" height="40" style="fill:white;stroke:black;stroke-width:1" /><text x="470" y="4730" font-size="10" style="fill:blue">editor</text><path d="M440 4490 C460 4490 440 4740 460 4740" style="fill:transparent;stroke:black" /><rect x="680" y="4720" width="200" height="40" style="fill:white;stroke:black;stroke-width:1" /><text x="690" y="4730" font-size="10" style="fill:blue">nombre</text><path d="M660 4740 C680 4740 660 4740 680 4740" style="fill:transparent;stroke:black" /><rect x="746" y="4720" width="137" height="40" style="fill:green;stroke:black;stroke-width:1" /><text x="756" y="4730" font-size="8" style="fill:white">Peter</text><rect x="680" y="4770" width="200" height="40" style="fill:white;stroke:black;stroke-width:1" /><text x="690" y="4780" font-size="10" style="fill:blue">apellido</text><path d="M660 4740 C680 4740 660 4790 680 4790" style="fill:transparent;stroke:black" /><rect x="746" y="4770" width="137" height="40" style="fill:green;stroke:black;stroke-width:1" /><text x="756" y="4780" font-size="8" style="fill:white">Smith</text><rect x="460" y="4870" width="200" height="40" style="fill:white;stroke:black;stroke-width:1" /><text x="470" y="4880" font-size="10" style="fill:blue">editorial</text><path d="M440 4490 C460 4490 440 4890 460 4890" style="fill:transparent;stroke:black" /><rect x="526" y="4870" width="137" height="40" style="fill:green;stroke:black;stroke-width:1" /><text x="536" y="4880" font-size="8" style="fill:white">Morgan Kaufmann</text><rect x="460" y="4920" width="200" height="40" style="fill:white;stroke:black;stroke-width:1" /><text x="470" y="4930" font-size="10" style="fill:blue">precio</text><path d="M440 4490 C460 4490 440 4940 460 4940" style="fill:transparent;stroke:black" /><rect x="526" y="4920" width="137" height="40" style="fill:green;stroke:black;stroke-width:1" /><text x="536" y="4930" font-size="8" style="fill:white"> 100 </text><rect x="240" y="5020" width="200" height="40" style="fill:white;stroke:black;stroke-width:1" /><text x="250" y="5030" font-size="10" style="fill:blue">libro</text><path d="M220 40 C240 40 220 5040 240 5040" style="fill:transparent;stroke:black" /><text x="250" y="5040" font-size="8" style="fill:black">año: 2005</text><rect x="460" y="5020" width="200" height="40" style="fill:white;stroke:black;stroke-width:1" /><text x="470" y="5030" font-size="10" style="fill:blue">titulo</text><path d="M440 5040 C460 5040 440 5040 460 5040" style="fill:transparent;stroke:black" /><rect x="526" y="5020" width="137" height="40" style="fill:green;stroke:black;stroke-width:1" /><text x="536" y="5030" font-size="8" style="fill:white">Xquery from the Experts</text><rect x="460" y="5070" width="200" height="40" style="fill:white;stroke:black;stroke-width:1" /><text x="470" y="5080" font-size="10" style="fill:blue">autor</text><path d="M440 5040 C460 5040 440 5090 460 5090" style="fill:transparent;stroke:black" /><rect x="680" y="5070" width="200" height="40" style="fill:white;stroke:black;stroke-width:1" /><text x="690" y="5080" font-size="10" style="fill:blue">nombre</text><path d="M660 5090 C680 5090 660 5090 680 5090" style="fill:transparent;stroke:black" /><rect x="746" y="5070" width="137" height="40" style="fill:green;stroke:black;stroke-width:1" /><text x="756" y="5080" font-size="8" style="fill:white">David</text><rect x="680" y="5120" width="200" height="40" style="fill:white;stroke:black;stroke-width:1" /><text x="690" y="5130" font-size="10" style="fill:blue">apellido</text><path d="M660 5090 C680 5090 660 5140 680 5140" style="fill:transparent;stroke:black" /><rect x="746" y="5120" width="137" height="40" style="fill:green;stroke:black;stroke-width:1" /><text x="756" y="5130" font-size="8" style="fill:white">Chamberlin</text><rect x="460" y="5220" width="200" height="40" style="fill:white;stroke:black;stroke-width:1" /><text x="470" y="5230" font-size="10" style="fill:blue">autor</text><path d="M440 5040 C460 5040 440 5240 460 5240" style="fill:transparent;stroke:black" /><rect x="680" y="5220" width="200" height="40" style="fill:white;stroke:black;stroke-width:1" /><text x="690" y="5230" font-size="10" style="fill:blue">nombre</text><path d="M660 5240 C680 5240 660 5240 680 5240" style="fill:transparent;stroke:black" /><rect x="746" y="5220" width="137" height="40" style="fill:green;stroke:black;stroke-width:1" /><text x="756" y="5230" font-size="8" style="fill:white">D.</text><rect x="680" y="5270" width="200" height="40" style="fill:white;stroke:black;stroke-width:1" /><text x="690" y="5280" font-size="10" style="fill:blue">apellido</text><path d="M660 5240 C680 5240 660 5290 680 5290" style="fill:transparent;stroke:black" /><rect x="746" y="5270" width="137" height="40" style="fill:green;stroke:black;stroke-width:1" /><text x="756" y="5280" font-size="8" style="fill:white">Draper</text><rect x="460" y="5370" width="200" height="40" style="fill:white;stroke:black;stroke-width:1" /><text x="470" y="5380" font-size="10" style="fill:blue">editor</text><path d="M440 5040 C460 5040 440 5390 460 5390" style="fill:transparent;stroke:black" /><rect x="680" y="5370" width="200" height="40" style="fill:white;stroke:black;stroke-width:1" /><text x="690" y="5380" font-size="10" style="fill:blue">nombre</text><path d="M660 5390 C680 5390 660 5390 680 5390" style="fill:transparent;stroke:black" /><rect x="746" y="5370" width="137" height="40" style="fill:green;stroke:black;stroke-width:1" /><text x="756" y="5380" font-size="8" style="fill:white">Morgan</text><rect x="680" y="5420" width="200" height="40" style="fill:white;stroke:black;stroke-width:1" /><text x="690" y="5430" font-size="10" style="fill:blue">apellido</text><path d="M660 5390 C680 5390 660 5440 680 5440" style="fill:transparent;stroke:black" /><rect x="746" y="5420" width="137" height="40" style="fill:green;stroke:black;stroke-width:1" /><text x="756" y="5430" font-size="8" style="fill:white">kellerman</text><rect x="460" y="5520" width="200" height="40" style="fill:white;stroke:black;stroke-width:1" /><text x="470" y="5530" font-size="10" style="fill:blue">editorial</text><path d="M440 5040 C460 5040 440 5540 460 5540" style="fill:transparent;stroke:black" /><rect x="526" y="5520" width="137" height="40" style="fill:green;stroke:black;stroke-width:1" /><text x="536" y="5530" font-size="8" style="fill:white">Addison-Wesley</text><rect x="460" y="5570" width="200" height="40" style="fill:white;stroke:black;stroke-width:1" /><text x="470" y="5580" font-size="10" style="fill:blue">precio</text><path d="M440 5040 C460 5040 440 5590 460 5590" style="fill:transparent;stroke:black" /><rect x="526" y="5570" width="137" height="40" style="fill:green;stroke:black;stroke-width:1" /><text x="536" y="5580" font-size="8" style="fill:white">100</text><rect x="240" y="5670" width="200" height="40" style="fill:white;stroke:black;stroke-width:1" /><text x="250" y="5680" font-size="10" style="fill:blue">libro</text><path d="M220 40 C240 40 220 5690 240 5690" style="fill:transparent;stroke:black" /><text x="250" y="5690" font-size="8" style="fill:black">año: 2012</text><rect x="460" y="5670" width="200" height="40" style="fill:white;stroke:black;stroke-width:1" /><text x="470" y="5680" font-size="10" style="fill:blue">titulo</text><path d="M440 5690 C460 5690 440 5690 460 5690" style="fill:transparent;stroke:black" /><rect x="526" y="5670" width="137" height="40" style="fill:green;stroke:black;stroke-width:1" /><text x="536" y="5680" font-size="8" style="fill:white">XQuery 1.0: An XML Query Language</text><rect x="460" y="5720" width="200" height="40" style="fill:white;stroke:black;stroke-width:1" /><text x="470" y="5730" font-size="10" style="fill:blue">editor</text><path d="M440 5690 C460 5690 440 5740 460 5740" style="fill:transparent;stroke:black" /><rect x="680" y="5720" width="200" height="40" style="fill:white;stroke:black;stroke-width:1" /><text x="690" y="5730" font-size="10" style="fill:blue">nombre</text><path d="M660 5740 C680 5740 660 5740 680 5740" style="fill:transparent;stroke:black" /><rect x="746" y="5720" width="137" height="40" style="fill:green;stroke:black;stroke-width:1" /><text x="756" y="5730" font-size="8" style="fill:white">Rebeca</text><rect x="680" y="5770" width="200" height="40" style="fill:white;stroke:black;stroke-width:1" /><text x="690" y="5780" font-size="10" style="fill:blue">apellido</text><path d="M660 5740 C680 5740 660 5790 680 5790" style="fill:transparent;stroke:black" /><rect x="746" y="5770" width="137" height="40" style="fill:green;stroke:black;stroke-width:1" /><text x="756" y="5780" font-size="8" style="fill:white">Gutierrez</text><rect x="460" y="5870" width="200" height="40" style="fill:white;stroke:black;stroke-width:1" /><text x="470" y="5880" font-size="10" style="fill:blue">editorial</text><path d="M440 5690 C460 5690 440 5890 460 5890" style="fill:transparent;stroke:black" /><rect x="526" y="5870" width="137" height="40" style="fill:green;stroke:black;stroke-width:1" /><text x="536" y="5880" font-size="8" style="fill:white">W3C</text></svg>